<mxfile>
    <diagram id="N_f7JGh9qu5mkWohpCK6" name="Page-1">
        <mxGraphModel dx="502" dy="261" grid="1" gridSize="10" guides="1" tooltips="1" connect="1" arrows="1" fold="1" page="1" pageScale="1" pageWidth="850" pageHeight="1100" math="0" shadow="0">
            <root>
                <mxCell id="0"/>
                <mxCell id="1" parent="0"/>
                <mxCell id="12" value="4" style="ellipse;whiteSpace=wrap;html=1;aspect=fixed;sketch=1;fillColor=#1ba1e2;strokeColor=#006EAF;fontSize=20;direction=west;fontColor=#000000;" parent="1" vertex="1">
                    <mxGeometry x="160" y="220" width="40" height="40" as="geometry"/>
                </mxCell>
                <mxCell id="15" value="" style="endArrow=none;html=1;sketch=1;fillColor=#1ba1e2;strokeColor=#006EAF;fontColor=#000000;entryX=0.228;entryY=0.028;entryDx=0;entryDy=0;entryPerimeter=0;" parent="1" source="12" target="11" edge="1">
                    <mxGeometry width="50" height="50" relative="1" as="geometry">
                        <mxPoint x="70" y="131.71572875253787" as="sourcePoint"/>
                        <mxPoint x="101.71572875253787" y="100" as="targetPoint"/>
                    </mxGeometry>
                </mxCell>
                <mxCell id="2" value="1" style="ellipse;whiteSpace=wrap;html=1;aspect=fixed;sketch=1;fillColor=#1ba1e2;strokeColor=#006EAF;fontSize=20;fontColor=#000000;" parent="1" vertex="1">
                    <mxGeometry x="130" y="10" width="40" height="40" as="geometry"/>
                </mxCell>
                <mxCell id="6" value="" style="endArrow=none;html=1;entryX=0;entryY=1;entryDx=0;entryDy=0;sketch=1;fillColor=#1ba1e2;strokeColor=#006EAF;fontColor=#000000;" parent="1" target="2" edge="1">
                    <mxGeometry x="30" y="10" width="50" height="50" as="geometry">
                        <mxPoint x="104" y="76" as="sourcePoint"/>
                        <mxPoint x="180" y="210" as="targetPoint"/>
                    </mxGeometry>
                </mxCell>
                <mxCell id="9" value="2" style="ellipse;whiteSpace=wrap;html=1;aspect=fixed;sketch=1;fillColor=#1ba1e2;strokeColor=#006EAF;fontSize=20;direction=west;fontColor=#000000;" parent="1" vertex="1">
                    <mxGeometry x="70" y="70" width="40" height="40" as="geometry"/>
                </mxCell>
                <mxCell id="11" value="3" style="ellipse;whiteSpace=wrap;html=1;aspect=fixed;sketch=1;fillColor=#1ba1e2;strokeColor=#006EAF;fontSize=20;direction=west;fontColor=#000000;" parent="1" vertex="1">
                    <mxGeometry x="110" y="150" width="40" height="40" as="geometry"/>
                </mxCell>
                <mxCell id="14" value="" style="endArrow=none;html=1;exitX=0.75;exitY=1;exitDx=0;exitDy=0;sketch=1;fillColor=#1ba1e2;strokeColor=#006EAF;fontColor=#000000;exitPerimeter=0;" parent="1" target="9" edge="1" source="11">
                    <mxGeometry x="30" y="10" width="50" height="50" as="geometry">
                        <mxPoint x="60" y="151.71572875253787" as="sourcePoint"/>
                        <mxPoint x="91.71572875253787" y="120" as="targetPoint"/>
                    </mxGeometry>
                </mxCell>
            </root>
        </mxGraphModel>
    </diagram>
</mxfile>